<svg id="组_687" data-name="组 687" xmlns="http://www.w3.org/2000/svg" width="33.296" height="31.999" viewBox="0 0 33.296 31.999">
  <path id="路径_339" data-name="路径 339" d="M1186.074,332.5a13.354,13.354,0,0,1-1.236,1.115c-1.123,1.043-2.7,2.774-2.421,4.6,1.076-.183.9-1.568,2.479-1.459a4.221,4.221,0,0,1,2.839,1.329,6.161,6.161,0,0,1,1.743,2.243c.319.619,1.375,2.343.888,2.942-.755-.069-.22.1-1.031-1.469-.322-.622-.512-1.35-1.077-1.235-.735.611.558,1.5.3,2.794l-1.514-.008c-.476-.862-.361-2.247-.913-2.851-1.219.181-.158,2.609-2.549,1.847-.186-.937.187-1.462-.451-2.019-.6.437-.323.618-.44,1.589l-1.467-.4c.014-.557.136-.889-.159-1.316-.308.129-.236.086-.538.616a.853.853,0,0,1-.053.1c-.91-.447-1.514-2.457-2.613-2.454l.085,1.08-1.672-.3.482.9-.766.271a.62.62,0,0,0-.106.06c.242.384.241.361.89.458-.592.453-.592-.105-.832.576.474.452,3.045.211,3.9.223-.275.523-.709.493-.65,1.192.8.062.864-.582,1.5-.743.463-.119,1.356.324,1.765.449-.214.777-.744.872-.96,1.574,1.646.051,1.022-1.164,2.091-1.238,2.531-.17-2.679,5.343,1.464,10.058a2.556,2.556,0,0,0,2.215,1.193c1.911.094,3.7-1.418,4.588-2.175.032-.937-.293-.949-.2-2.122a11.5,11.5,0,0,1,.5-2.8,5.669,5.669,0,0,0-.23-.967,5.256,5.256,0,0,1-.281-1.894,21.9,21.9,0,0,1,3.663.426c1.1.256,1.468,1.033,2.55,1.875.915.714,1.553,1.277,2.438,1.991.866.7,1.768,1.114,2.6,1.811-.8,1.063-2.779.272-4.362.642-.656.154-1.352.664-1.813.682-.825.023-1.2-.32-1.953.267-.6.468-.38.989-1.44,1.062a4.041,4.041,0,0,0-2.145.377,2.891,2.891,0,0,0-1.144,1.368c-.377.648-.933.695-1.269,1.243,6.209,4.035,16.2-1.461,16.9-6.632-1.562.354-1.391.609-2.7-.245-.975-.635-1.539-1.216-2.3-1.681.255-1.619.014-2.858.158-4.285l1.039-.089c.065,1.282,0,3.092.83,3.669,1.474,1.023,4.848-.131,5.956-2.442.256-.528,1.04-2.31.025-2.439-.341-.043-.091.046-.465.035l-.327-.052a.379.379,0,0,1-.1-.037l1.09-.265c-.078-1.648-4.167-3.295-5.953-3.355-1.583-.053-1.636.057-2.5.682-.155,1.568.58,2.315,1.124,3.334-.55.2-.921.286-1.252-.276-.465-.79-1.479-3.263-2.541-3.691-.147,1.363.987,1.357,1.722,4.015l-1.739.524c-.308-.6-3.261-4.2-4.089-4.331.161,1.151,1.259,2.2,1.413,3.207-1.06-.581-2.7-3.65-2.848-5.532-.33-4.33,2.684-4.292,3.018-5.359-4.47-.474-6.4,1.009-7.807,1.179-1.267-4.084.1-3.493.9-4.6-.494-1.367-3.849-3.345-3.948-.446-.066,1.926,1.39,3.824,1.7,5.612Zm13.939,14.235a7.406,7.406,0,0,1-.762-.532l-.812-.668a2.161,2.161,0,0,1-.215-2.223,2.454,2.454,0,0,1,1.278-.134c.542.11.474.274.516.9a15.659,15.659,0,0,1,0,2.66Zm-14.326-11.727a11.03,11.03,0,0,1,5.766-2.85c-1.107,3.445-.589,5.537,1.1,8.485a12.692,12.692,0,0,1,1.3,2.135c-3.265,1.091-2.509-.462-3.369-2.424-.341-.776-.9-1.58-1.15-2.227.407.552.069.526.736.583a3.472,3.472,0,0,0-.529-3.168,1.53,1.53,0,0,0-1.508.511c.019.6-.013.283.3.757-.528-.281-.794-.667-1.288-.987a6.9,6.9,0,0,1-1.357-.812Zm11.828,18.066a2.653,2.653,0,0,1,1.414-1.09c.584-.162,1.161.272,1.757.455,1.489.456,1.932-.37,2.651-.78.229-.129.452-.186.674-.325a7.02,7.02,0,0,1-2.1,2.6,17.937,17.937,0,0,1-3.127,1.749,10.379,10.379,0,0,1-8.008.416,11.98,11.98,0,0,1,1.091-1.879c.713-.662,1.462.046,2.069.268,1.321-1.467,1.008-1.583,3.578-1.416Zm-10.267-3.272c-.154-3.275-1.156-1.026-1.391-2.743-.141-1.022.292-.791.645-1.293a4.2,4.2,0,0,0,.381-1.69c3.29-.449,1.346,1.441,1.107,2.78,1.69.072,1.6-2.687,2.379-2.664,1.071.445.814,3.963.575,5.135l-.394.094a2.14,2.14,0,0,1-.624.058c-.356-.724.1-.386-.442-.6-.233.523-.346.525-.184.918.23.557.219-.386.2.671.69.1.84.092,1.289.566-.028.828-.677,1.113-1.781,1.664-3.042,1.52-5.077-2.194-4.6-4.771,1.083-.33.631-.234,1.21.237l.447.434c.475.833-.158,1.51.589,2.1a5.184,5.184,0,0,0,2.631-.2c-.332-.431-1.534-.578-2.032-.7Zm8.977-.831a11.068,11.068,0,0,1-2.812-.92,2.747,2.747,0,0,1-.858-3c.382-1.153,1.078.441,1.959,1.016.767.5,1.659.944,2.306,1.478a1.9,1.9,0,0,1-.6,1.427Zm-9.979,2.521c.014-.015.044-.1.341-.078.262.021.717.482.718.487.065.88-1.987.618-1.063-.409Zm3.182-.434a.224.224,0,0,1,.2-.019c.22.13,1.379-.033,1.073.4-.789,1.107-2.273.216-1.271-.377Zm4.2,4.051a1.483,1.483,0,0,0,.243.064c.713-.028.048.8-.432.416-.439-.352-.19-.55.189-.48Zm2.011-.473c0-.007.829-.356,1.12-.128.938.736-.42,1.086-.588,1.016-1.078-.445-.472-.543-.532-.888Zm2.154-1.329h.171c1.131.23-.075,1.174-.814.736-.681-.4.265-.642.645-.734Zm2.007-.435a.912.912,0,0,1,.766-.146c1.688.7-.61,1.175-1.1.924-.569-.292.256-.653.333-.778Zm-1.558,1.807c.941-.455.493,1.039.085.747-.53-.377-.567-.231-.085-.747Zm-10.262-3.476c.637.085.276.175.419.194.72.092.293.852-.457.662-.426-.11-.848-.6-.537-.615.6-.049.061-.314.575-.246Zm0,0" transform="translate(-1175.886 -325.396)" fill="#fff"/>
</svg>
