<svg xmlns="http://www.w3.org/2000/svg" width="20" height="20" viewBox="0 0 20 20">
  <path id="路径_288" data-name="路径 288" d="M1084.143,255.07a10,10,0,1,0,0,14.143,10,10,0,0,0,0-14.143Zm-3.636,9.5a.5.5,0,0,1,.007.707l-.007.007-.3.3a.5.5,0,0,1-.707.007l-.007-.007-2.418-2.432-2.428,2.425a.5.5,0,0,1-.707.007l-.007-.007-.3-.3a.5.5,0,0,1-.007-.707l.007-.007,2.428-2.422-2.425-2.425a.5.5,0,0,1-.007-.707l.007-.007.3-.3a.5.5,0,0,1,.707-.007l.007.007,2.418,2.432,2.425-2.425a.5.5,0,0,1,.707-.007l.007.007.3.3a.5.5,0,0,1,.007.707l-.007.007-2.424,2.418Z" transform="translate(-1067.072 -252.141)" fill="#222"/>
</svg>
