<svg xmlns="http://www.w3.org/2000/svg" width="103.868" height="112.203" viewBox="0 0 103.868 112.203">
  <g id="组_694" data-name="组 694" transform="translate(-1050.363 -132.724)">
    <path id="路径_252" data-name="路径 252" d="M1200.519,340.555c-18.577,0-37.77,5.762-42.868,12.87-1.637,2.282-1.619,4.425-.229,6.283h0l.013.016c.024.032.051.064.076.1q.127.161.266.319c.033.037.064.074.1.111q.17.185.36.365c.039.038.081.075.121.113q.171.157.355.311c.03.025.057.05.088.074.145.118.3.233.456.348l.152.108c.161.114.327.226.5.337l.117.071c.153.1.311.189.474.282l.16.091q.285.159.589.312l.171.084q.274.135.56.266l.127.058c.222.1.452.2.686.291l.2.079c.24.1.484.189.736.28l.105.037q.35.125.715.244l.193.063q.4.129.819.251l.181.052q.385.11.785.215l.14.037c.3.077.6.151.911.222l.216.05c.317.072.638.142.966.209l.049.01c.319.065.645.126.974.186l.216.039q.507.09,1.03.172l.179.027q.485.074.983.142l.167.023q.544.072,1.1.135l.245.027c.383.042.769.082,1.163.118,1.8.165,1.281.708.955,1.475l-1.538,3.621h0l-6.313,14.864,18.4-18.222a4.215,4.215,0,0,1,3.208-1.728q.8-.063,1.589-.14c.144-.014.287-.03.43-.044.386-.039.771-.078,1.156-.122.167-.019.332-.039.5-.059q.541-.064,1.08-.132l.516-.069q.525-.07,1.047-.145l.228-.032h-.008a84.894,84.894,0,0,0,15.132-3.592v0l.11-.039c.326-.113.646-.229.964-.345l.274-.1q.565-.21,1.112-.426l.088-.034q1.2-.477,2.31-.984l.228-.107c.28-.13.557-.26.827-.393.114-.056.224-.113.337-.169.227-.114.452-.228.672-.344.124-.065.245-.132.367-.2.2-.109.4-.219.6-.33.124-.07.245-.141.365-.212q.28-.164.549-.33c.062-.038.128-.075.189-.113v0a16.514,16.514,0,0,0,4.694-4.1C1230.023,346.317,1219.1,340.555,1200.519,340.555Z" transform="translate(-71.946 -141.013)" fill="#333" fill-rule="evenodd" opacity="0.36"/>
    <path id="路径_253" data-name="路径 253" d="M1095.916,133.054a45.556,45.556,0,0,0-9.724,89.986,2.725,2.725,0,0,1,2.31,2.087,78.15,78.15,0,0,0,3.386,9.981l4.354,10.042,4.346-10.174a56.151,56.151,0,0,0,3.228-9.524,2.759,2.759,0,0,1,2.312-2.375,45.555,45.555,0,0,0-10.213-90.023Z" transform="translate(-0.222 -0.223)" fill="#5ad28c" fill-rule="evenodd"/>
    <circle id="椭圆_1" data-name="椭圆 1" cx="40.035" cy="40.035" r="40.035" transform="translate(1050.363 211.862) rotate(-81.254)" fill="#fff"/>
    <g id="组_532" data-name="组 532" transform="translate(383.907 -279.069)">
      <g id="组_529" data-name="组 529" transform="translate(689.71 439.495)">
        <path id="路径_325" data-name="路径 325" d="M714.935,487.379h10.236V481.05H704.913a3.22,3.22,0,0,0-3.223,3.186,3.167,3.167,0,0,0,3.166,3.145h.915l2.019,35.92a3.817,3.817,0,0,0,3.81,3.587h13.571V505.743c-.6-.07-1.014-.135-1.014-.135l1.014-.569v-1.751l-.516-.891c.178-.307.354-.616.516-.9V499.83c-.782,1.351-4.128,7.154-4.128,7.154l-4.724-2.727s2.258-3.974,2.856-4.949a1.938,1.938,0,0,1,1.648-.96h4.347v-5.612H714.935a2.68,2.68,0,0,1-2.678-2.6c0-.027,0-.051,0-.078A2.681,2.681,0,0,1,714.935,487.379Zm8.911,26.256v5.438h-4.881a2.157,2.157,0,0,1-1.874-3.247s.629-1.091,1.263-2.191Zm-5.964-6.548c1.169.676,2.695,4.623,2.742,4.748l-1.761-1.02-2.686,4.652a2.771,2.771,0,0,0-.008,2.781l-3.391-5.872a1.89,1.89,0,0,1,.01-1.9l1.372-2.371-1.765-1.013S716.692,506.4,717.882,507.087Z" transform="translate(-701.69 -481.05)" fill="#69b2df"/>
      </g>
      <g id="组_530" data-name="组 530" transform="translate(713.191 439.494)">
        <path id="路径_326" data-name="路径 326" d="M816.37,503.285v1.749l.764-.428Zm20.3-21.313a3.15,3.15,0,0,0-2.238-.927H816.37v6.329h7.979a2.679,2.679,0,1,1,0,5.358H816.37v5.61H818.8a2.714,2.714,0,0,0-2.365,1.374c-.018.033-.039.068-.063.109V501.5c.422-.729.749-1.292.751-1.294a2.15,2.15,0,0,1,1.869-1.1,2.176,2.176,0,0,1,1.876,1.085c.274.477.96,1.679.96,1.679l1.757-1.018c-.047.125-1.573,4.07-2.742,4.748-.821.473-3.125.293-4.472.137v10.549c0-1.372,2.742-4.752,2.742-4.752l0,2.035h5.373a2.767,2.767,0,0,0,2.41-1.38l-3.391,5.874a1.9,1.9,0,0,1-1.654.942h-2.737l0,2.031s-2.742-3.38-2.742-4.75v10.6h11.511a3.818,3.818,0,0,0,3.813-3.61l1.835-35.9h.9a3.165,3.165,0,0,0,2.236-5.4Zm-10.428,29.741a2.164,2.164,0,0,1-1.888,1.077h-2.527l-2.744-4.75,4.707-2.717c1.081,1.869,2.441,4.22,2.441,4.222A2.16,2.16,0,0,1,826.237,511.713Z" transform="translate(-816.37 -481.045)" fill="#2882b7"/>
      </g>
      <g id="组_531" data-name="组 531" transform="translate(700.63 428.796)">
        <path id="路径_327" data-name="路径 327" d="M780.09,439.067l-2.245-8.916a1.772,1.772,0,0,0-1.721-1.338h-17.08a1.773,1.773,0,0,0-1.721,1.338l-2.245,8.916a1.79,1.79,0,0,0,.324,1.521,1.77,1.77,0,0,0,1.4.685h21.568a1.779,1.779,0,0,0,1.722-2.207Zm-21.014-1.338,1.349-5.37h14.317l1.355,5.37Z" transform="translate(-755.026 -428.81)" fill="#2882b7"/>
        <path id="路径_256" data-name="路径 256" d="M828.872,439.05l-2.245-8.916a1.777,1.777,0,0,0-1.721-1.338h-8.537v3.545h7.155l1.355,5.37h-8.51v3.545h10.788a1.773,1.773,0,0,0,1.717-2.207Z" transform="translate(-803.808 -428.796)" fill="#0066a5"/>
      </g>
      <path id="路径_257" data-name="路径 257" d="M733.8,478.329H690.311a3.267,3.267,0,1,1,0-6.479H733.8a3.267,3.267,0,1,1,0,6.479Z" transform="translate(0 -34.239)" fill="#f2b446"/>
      <path id="路径_258" data-name="路径 258" d="M837.145,471.85H816.37v6.485h20.781a3.254,3.254,0,1,0,0-6.485Z" transform="translate(-103.179 -34.239)" fill="#f0930b"/>
    </g>
  </g>
</svg>
