<svg xmlns="http://www.w3.org/2000/svg" width="23.686" height="28.49" viewBox="0 0 23.686 28.49">
  <g id="组_681" data-name="组 681" transform="translate(-931.739 -135.617)">
    <path id="路径_597" data-name="路径 597" d="M943.632,140.049a1.2,1.2,0,0,1,.347-.817,1.08,1.08,0,0,1,.817-.347h2.984a1.2,1.2,0,0,1,.817.347,1.139,1.139,0,0,1,.347.735v3.2c1.188.037,2.3.1,3.288.178v-3.277a4.411,4.411,0,0,0-1.307-3.145,4.466,4.466,0,0,0-3.145-1.307H944.8a4.462,4.462,0,0,0-4.452,4.452v3.277c.988-.081,2.1-.141,3.288-.178Z" transform="translate(-2.706)" fill="#fff"/>
    <path id="路径_598" data-name="路径 598" d="M955.425,143.518c0-1.3-1.579-2.291-4.139-2.835-.482-.1-1.014-.192-1.579-.272v2.427c1.539.181,2.491.431,2.491.705,0,.554-3.858,1-8.615,1s-8.616-.45-8.616-1c0-.264.886-.5,2.324-.683v-2.365c-.665.1-.881.064-1.429.176-2.543.561-4.122,1.538-4.122,2.835a2.238,2.238,0,0,0,1.28,1.826h0l.764,13.886a1.941,1.941,0,0,0-.847,1.538c0,1.282,1.465,2.243,3.84,2.739a34.822,34.822,0,0,0,6.815.609,33.652,33.652,0,0,0,6.815-.609c2.377-.5,3.84-1.458,3.84-2.739a1.89,1.89,0,0,0-.814-1.491l.7-13.921A2.227,2.227,0,0,0,955.425,143.518Zm-18.038,15.848-.563-11.822,2.709.272.081,12.111Zm7.681.657h-2.742v-12.03h2.742Z" fill="#fff"/>
  </g>
</svg>
