<svg xmlns="http://www.w3.org/2000/svg" width="28.49" height="28.493" viewBox="0 0 28.49 28.493">
  <path id="路径_654" data-name="路径 654" d="M104.982,116.846,98,109.867v0l1.857-1.857a1.973,1.973,0,0,1,2.152-.429l4.7,1.946h0l9.069-6.992v0l-2.427-2.427v0l1.394-1.394a1.974,1.974,0,0,1,2.794,0l1.394,1.394.007-.007,5.581,5.585-.007.007,1.394,1.394a1.974,1.974,0,0,1,0,2.794l-1.394,1.394h0l-2.43-2.427h0l-6.992,9.066v0l1.946,4.7a1.973,1.973,0,0,1-.429,2.152l-1.857,1.857h0l-6.972-6.979h0l-6.968,6.968H98.007v-2.791l6.972-6.972Z" transform="translate(-98 -98.125)" fill="#fff"/>
</svg>
