<svg xmlns="http://www.w3.org/2000/svg" width="20.004" height="19.601" viewBox="0 0 20.004 19.601">
  <path id="路径_309" data-name="路径 309" d="M1461.1,263.657a.812.812,0,0,1-.8.8h-2.8a7.294,7.294,0,0,1-.838,3.625l2.6,2.613a.783.783,0,0,1,.016,1.108l-.016.017a.785.785,0,0,1-1.109.016l-.016-.016-2.475-2.462a2.436,2.436,0,0,1-.187.162q-.125.1-.525.356a7.886,7.886,0,0,1-.813.456,5.883,5.883,0,0,1-1.025.362,4.732,4.732,0,0,1-1.213.162v-11.2h-1.6v11.2a4.942,4.942,0,0,1-1.269-.169,5.137,5.137,0,0,1-1.087-.413q-.456-.244-.825-.487a4.4,4.4,0,0,1-.544-.406l-.187-.175-2.281,2.587a.8.8,0,0,1-.6.262.812.812,0,0,1-.538-.2.833.833,0,0,1-.062-1.138l2.52-2.832a7.482,7.482,0,0,1-.725-3.425h-2.8a.8.8,0,0,1,0-1.6h2.8v-3.675l-2.162-2.162a.8.8,0,1,1,1.125-1.125l2.162,2.157h10.55l2.162-2.162a.8.8,0,1,1,1.245,1.005.856.856,0,0,1-.12.12l-2.157,2.167v3.67h2.8a.811.811,0,0,1,.8.8Zm-6-7.2h-8a4,4,0,0,1,8,0Z" transform="translate(-1441.105 -252.457)" fill="#e75938"/>
</svg>
