<svg id="组_691" data-name="组 691" xmlns="http://www.w3.org/2000/svg" width="35.129" height="31.999" viewBox="0 0 35.129 31.999">
  <g id="组_533" data-name="组 533" transform="translate(7.844)">
    <path id="路径_328" data-name="路径 328" d="M1051.348,326.749a9.071,9.071,0,0,0-2.41,3.1l2.735,4.82-1.236.789,6.182.069,2.918-5.369-1.739.738-2.553-3.868a1.823,1.823,0,0,0-1.179-.858A3.925,3.925,0,0,0,1051.348,326.749Z" transform="translate(-1037.994 -325.396)" fill="#008bdc"/>
    <path id="路径_329" data-name="路径 329" d="M1050.838,325.472l-7.687-.076c-1.052.174-2.061,1.149-3.017,2.976l-2.14,3.86,6.273,3.475,4.271-7.582A6,6,0,0,1,1050.838,325.472Z" transform="translate(-1037.994 -325.396)" fill="#008bdc"/>
  </g>
  <g id="组_536" data-name="组 536" transform="translate(0 11.27)">
    <g id="组_534" data-name="组 534" transform="translate(0 0.63)">
      <path id="路径_330" data-name="路径 330" d="M1032.053,346.162a9.08,9.08,0,0,0,3.879.605l2.89-4.728,1.288.7-2.932-5.44-6.117.051,1.488,1.163-2.145,4.1a1.822,1.822,0,0,0-.18,1.442A3.973,3.973,0,0,0,1032.053,346.162Z" transform="translate(-1030.15 -337.296)" fill="#008bdc"/>
      <path id="路径_331" data-name="路径 331" d="M1032.456,347.339l3.659,6.759c.661.834,1.994,1.249,4.068,1.192h4.412v-7.168l-8.7-.059A6.032,6.032,0,0,1,1032.456,347.339Z" transform="translate(-1030.15 -337.296)" fill="#008bdc"/>
    </g>
    <g id="组_535" data-name="组 535" transform="translate(20.005)">
      <path id="路径_332" data-name="路径 332" d="M1058.848,348.272l-5.543.051-.092-1.459-3.058,5.375,3.277,5.157.2-1.877,4.625-.36a1.815,1.815,0,0,0,1.319-.612,3.979,3.979,0,0,0,.817-2.664A9.039,9.039,0,0,0,1058.848,348.272Z" transform="translate(-1050.155 -336.666)" fill="#008bdc"/>
      <path id="路径_333" data-name="路径 333" d="M1061.671,336.666l-6.081,3.8,4.559,7.411a5.992,5.992,0,0,1,1.2,3.3l3.8-6.685c.357-1-.008-2.356-1.14-4.084Z" transform="translate(-1050.155 -336.666)" fill="#008bdc"/>
    </g>
  </g>
</svg>
