<svg xmlns="http://www.w3.org/2000/svg" width="14.742" height="22.245" viewBox="0 0 14.742 22.245">
  <g id="组_473" data-name="组 473" transform="translate(-177.84 -7.782)">
    <path id="路径_310" data-name="路径 310" d="M185.217,24.876h-2.2a1.562,1.562,0,0,1-1.441-.894,1.258,1.258,0,0,1-.141-.648,4.47,4.47,0,0,0-.676-2.415,4.32,4.32,0,0,0-.6-.732,10.24,10.24,0,0,1-1.207-1.646,9.143,9.143,0,0,1-.8-1.61,5.325,5.325,0,0,1-.306-1.658,7.26,7.26,0,0,1,.173-1.811,6.552,6.552,0,0,1,1.1-2.451,7.8,7.8,0,0,1,2.906-2.52,6.986,6.986,0,0,1,1.578-.539,8,8,0,0,1,1.984-.161,7.11,7.11,0,0,1,2.684.624,6.89,6.89,0,0,1,1.506.95,8.056,8.056,0,0,1,1.755,1.988,7.068,7.068,0,0,1,1.034,4.2,5.522,5.522,0,0,1-.4,1.638,9.247,9.247,0,0,1-1.284,2.27,10.075,10.075,0,0,1-.728.845,3.486,3.486,0,0,0-.664,1.022,4.713,4.713,0,0,0-.4,1.184c-.04.249-.04.495-.064.741a3.3,3.3,0,0,1-.076.539,1.485,1.485,0,0,1-.717.861,1.61,1.61,0,0,1-.841.217l-2.165,0Zm-.459-15.211c-.233.024-.475.044-.7.085a4.53,4.53,0,0,0-1.586.568,5.114,5.114,0,0,0-1.188.946,4.828,4.828,0,0,0-.922,1.356,5.036,5.036,0,0,0-.4,2.012.6.6,0,0,0,.7.62.612.612,0,0,0,.475-.56V14.4a3.493,3.493,0,0,1,.205-1.043,3.96,3.96,0,0,1,1.381-1.791,3.575,3.575,0,0,1,2.012-.733,3.078,3.078,0,0,0,.4-.032.5.5,0,0,0,.4-.33.66.66,0,0,0,0-.4.5.5,0,0,0-.443-.4h-.338Zm-2.347,16.572h5.6a.445.445,0,0,1,.444.444v1.366a.445.445,0,0,1-.444.444h-5.6a.445.445,0,0,1-.443-.444V26.681A.445.445,0,0,1,182.412,26.237Z" fill="#222"/>
    <path id="路径_311" data-name="路径 311" d="M398.211,895.5h3.55a.753.753,0,0,1,.751.751v1.161a.753.753,0,0,1-.751.751h-3.55a.753.753,0,0,1-.751-.751v-1.161A.753.753,0,0,1,398.211,895.5Z" transform="translate(-214.774 -868.139)" fill="#222"/>
  </g>
</svg>
