<svg xmlns="http://www.w3.org/2000/svg" width="15.46" height="20.626" viewBox="0 0 15.46 20.626">
  <path id="路径_313" data-name="路径 313" d="M159.2,33.172a3.7,3.7,0,1,0-3.186-1.847l-2.03,2.007a.676.676,0,0,0-.345.4.53.53,0,0,0-.045.265.8.8,0,0,0,.246.614,2.837,2.837,0,1,1-2.851-.63.814.814,0,0,0-.521-1.543,4.485,4.485,0,0,0,1.424,8.733,4.421,4.421,0,0,0,2.28-.635L155.513,42a2.932,2.932,0,1,0,.729-.811l-1.2-1.321a4.479,4.479,0,0,0,.156-6.2l1.5-1.487a3.662,3.662,0,0,0,2.505.993Zm-1.217,9.041a1.282,1.282,0,1,1-1.273,1.282,1.279,1.279,0,0,1,1.273-1.282ZM159.2,27.407a2.068,2.068,0,1,1-2.057,2.068A2.065,2.065,0,0,1,159.2,27.407Z" transform="translate(-147.43 -25.779)" fill="#222"/>
</svg>
