<svg xmlns="http://www.w3.org/2000/svg" width="15.059" height="14.117" viewBox="0 0 15.059 14.117">
  <path id="路径_315" data-name="路径 315" d="M.6,8.4H4.212a.415.415,0,0,1,.413.417V13.7a.415.415,0,0,1-.413.417H.6A.415.415,0,0,1,.187,13.7V8.812A.415.415,0,0,1,.6,8.4ZM5.842,4.533H9.45a.416.416,0,0,1,.415.419V13.7a.416.416,0,0,1-.415.419H5.842a.416.416,0,0,1-.415-.419V4.952a.416.416,0,0,1,.415-.418Zm5.186,2.1h3.623a.409.409,0,0,1,.408.411v6.663a.409.409,0,0,1-.408.411H11.028a.409.409,0,0,1-.408-.411V7.043a.409.409,0,0,1,.408-.411ZM0,5.106,1.009,6.1.771,7.5l1.248-.663L3.267,7.5,3.029,6.1l1.009-.994-1.4-.2L2.019,3.623,1.395,4.9,0,5.106M6.4,3.879l1.248-.663L8.9,3.879l-.237-1.4,1.009-.994L8.534,1.315a.5.5,0,0,1-.376-.278L7.646,0,7.022,1.277l-1.4.2,1.01.994ZM11.623,6.1l1.206-.64a.018.018,0,0,1,.017,0l1.206.64a.019.019,0,0,0,.027-.02l-.23-1.356a.018.018,0,0,1,.005-.017l.975-.96a.019.019,0,0,0-.007-.032l-1.348-.2a.019.019,0,0,1-.014-.01l-.6-1.233a.018.018,0,0,0-.033,0l-.6,1.233a.019.019,0,0,1-.014.01l-1.348.2a.019.019,0,0,0-.011.032l.975.96a.018.018,0,0,1,.005.017L11.6,6.083a.019.019,0,0,0,.023.02Z" fill="#32a060"/>
</svg>
