<svg xmlns="http://www.w3.org/2000/svg" width="20.241" height="22.137" viewBox="0 0 20.241 22.137">
  <path id="路径_314" data-name="路径 314" d="M90.783,41.7a.919.919,0,0,1-.922.922h-18.4a.919.919,0,0,1-.922-.922s.154-3.177,2.665-4.407a24.507,24.507,0,0,1,2.921-1.179,6.458,6.458,0,0,0,2.408-1.332l-.1-1.025a3.737,3.737,0,0,1-2.511-2.972c-.666.154-.871-.717-.922-1.281s-.41-2.306.41-2.152a11.9,11.9,0,0,1-.2-2.767c.1-.922-.154-1.076.717-1.794.2-.2-.2-1.076-.051-1.332.256-.512,2-.307,2.255-.41a7.216,7.216,0,0,1,2.408-.564c3.69.154,5.124,2.152,5.329,4.1a12.63,12.63,0,0,1-.256,2.767c.82-.154.461,1.589.41,2.152s-.256,1.486-.922,1.281a3.627,3.627,0,0,1-2.1,2.972l-.1.974A7.623,7.623,0,0,0,85.3,36.058a23.932,23.932,0,0,1,2.921,1.23c2.408,1.179,2.562,4.407,2.562,4.407Zm0,0" transform="translate(-70.542 -20.48)" fill="#222"/>
</svg>
