<svg xmlns="http://www.w3.org/2000/svg" width="20.867" height="16.293" viewBox="0 0 20.867 16.293">
  <path id="路径_293" data-name="路径 293" d="M14.243,71.887a3.4,3.4,0,0,0,0,6.795,3.4,3.4,0,0,0,0-6.795Zm6.87-3.741H18.354c-.734-.941-1.587-2.031-1.6-2.031H10.739c-.014,0-.876,1.09-1.618,2.031H3.888a1.821,1.821,0,0,0-1.821,1.821v10.62a1.821,1.821,0,0,0,1.821,1.821H21.112a1.821,1.821,0,0,0,1.821-1.821V69.967a1.821,1.821,0,0,0-1.821-1.821ZM6.646,72.758a1.037,1.037,0,1,1,1.036-1.036A1.037,1.037,0,0,1,6.646,72.758ZM14.3,79.85a4.589,4.589,0,1,1,0-9.178,4.59,4.59,0,0,1,0,9.178Z" transform="translate(-2.067 -66.115)" fill="#fff"/>
</svg>
