<svg id="组_686" data-name="组 686" xmlns="http://www.w3.org/2000/svg" width="29.009" height="32" viewBox="0 0 29.009 32">
  <path id="路径_335" data-name="路径 335" d="M1132.888,343.732a1.6,1.6,0,0,0,.809-1.915c-1.779-2.987-8.226-13.64-9.009-14.457a5.836,5.836,0,0,0-3.009-1.8c-1.036-.28-3.4-.22-4.1.374,2.063.229,2.833,2.524,2.886,2.575.074.072.136.027.316.072.692.171,7.844,11.872,9.837,15.19C1130.914,344.263,1132.045,344.267,1132.888,343.732Z" transform="translate(-1105.62 -325.396)" fill="#fff"/>
  <path id="路径_336" data-name="路径 336" d="M1115.995,327.153c-.175.138-7.856,12.364-7.856,12.364-.8,1.286-2.521,3.662-2.519,5.6a4.289,4.289,0,0,0,.9,3.18c-.268-.828.321-1.6,1.339-2.406,1-.787,1.267-.077,1.567-1.086.384-1.286,9.074-15.036,9.074-15.036.455-.7.156-1.265-.417-1.842C1117.834,327.677,1116.518,326.743,1115.995,327.153Z" transform="translate(-1105.62 -325.396)" fill="#fff"/>
  <path id="路径_337" data-name="路径 337" d="M1133.418,348.79c1.607-1.524,1.152-5.027,1.152-5.027-.209,1.145-1.668,1.772-2.151,1.894-.8.2-1.2-.15-1.647.39-.982,1.2-2.458,1.009-4.671,1.009-.8,0-3.814.009-3.814.009l-.022,10.331,5.628-3.931-1.807-.012.006-2.778S1131.109,350.981,1133.418,348.79Z" transform="translate(-1105.62 -325.396)" fill="#fff"/>
  <path id="路径_338" data-name="路径 338" d="M1111.015,346.914c-.966-.12-1.979-.339-2.776.99-.549.915-.621,1.9.522,2.3a11.028,11.028,0,0,0,3.336.468c.791.011,2.66.009,2.66.009l.01,2.763H1113.1l5.54,3.949.032-10.331S1112.659,347.118,1111.015,346.914Z" transform="translate(-1105.62 -325.396)" fill="#fff"/>
</svg>
