<svg id="组_456" data-name="组 456" xmlns="http://www.w3.org/2000/svg" width="62" height="62" viewBox="0 0 62 62">
  <path id="路径_294" data-name="路径 294" d="M405.111,405.111m-6.889,0a6.889,6.889,0,1,0,6.889-6.889A6.889,6.889,0,0,0,398.222,405.111Z" transform="translate(-374.111 -374.111)" fill="#fff"/>
  <path id="路径_295" data-name="路径 295" d="M31,62A31,31,0,1,1,62,31,30.871,30.871,0,0,1,31,62ZM31,6.889A24.111,24.111,0,1,0,55.111,31,23.963,23.963,0,0,0,31,6.889Z" fill="#fff"/>
  <path id="路径_296" data-name="路径 296" d="M629.222,287.888m-3.444,0a3.444,3.444,0,1,0,3.444-3.444A3.444,3.444,0,0,0,625.778,287.888Z" transform="translate(-587.889 -267.222)" fill="#fff"/>
</svg>
