<svg xmlns="http://www.w3.org/2000/svg" width="26.633" height="32" viewBox="0 0 26.633 32">
  <path id="路径_657" data-name="路径 657" d="M1266.843,357.347a17.147,17.147,0,0,0,1.988-2c-.016-.019-.042-.072-.051-.055l-4.8-4.827a10.118,10.118,0,0,1-1.545-1.725l4.768-4.816a14.146,14.146,0,0,0,1.625-1.693,14.581,14.581,0,0,0-2.058-1.967c-.265,0-6.218,6.216-6.412,6.26-.419.1-2.581-2.3-3.084-2.76-.806-.742-.53-.857-.518-2.991.006-1.163-.021-1.032-.528-1.794-1.474-2.214-1.221-1.45-1.384-3.256a22.092,22.092,0,0,1-.127-2.248,12.045,12.045,0,0,1,3.029.969,19.843,19.843,0,0,0,10.82.161,17.989,17.989,0,0,0,7.814-4.428,15.144,15.144,0,0,0,1.882-2.228c-.6-.747-3.5-1.8-4.425-2.018-3.771-.908-9.513-.712-13.18,1.05a20.134,20.134,0,0,0-2.814,1.563c-.771.579-2.079,1.911-2.418,1.89-1.057-.07-1.08-2.148-2.059-2.257-.592.455-.373,2.322-.373,3.075v3.595c0,2.823-.186,2.128.934,4.294a2.026,2.026,0,0,1,.4,1.471c-.522-.087-.213-.18-.672-.341a13.093,13.093,0,0,0-2.014,1.961,7.59,7.59,0,0,0,1.216,1.283,10.054,10.054,0,0,1,1.262,1.339,29.066,29.066,0,0,1-1.36,3.182c-1.019,2.174-.956,1.758-.983,3.637l.326-.314c.471-.575,1.36-2.206,2.064-2.236.325.744.25,1.816.558,2.617a2.055,2.055,0,0,0,1.154-1.635,11.235,11.235,0,0,1,.1-2.833c.57-.217.845.24,1.135.53s.763.611.909,1.033a14.817,14.817,0,0,1-1.594,1.611c-.253.242-.416.475-.751.8l-4.054,4.1a17.193,17.193,0,0,0,2.027,2.055c.87-.378,5.953-6.235,6.565-6.287.18.8-.166,1.158.269,1.865a6.071,6.071,0,0,0,.842,1.278l.407-.266-.141-1.54c.593.14,4.84,4.6,5.246,4.9Zm0,0" transform="translate(-1251.628 -325.395)" fill="#d22924"/>
</svg>
