<svg xmlns="http://www.w3.org/2000/svg" width="29.661" height="28.49" viewBox="0 0 29.661 28.49">
  <path id="路径_652" data-name="路径 652" d="M121.5,152.223a1.566,1.566,0,0,1-1.561-1.561V125.294a1.561,1.561,0,1,1,3.122,0v25.368A1.566,1.566,0,0,1,121.5,152.223Zm-6.635-4.605a1.566,1.566,0,0,1-1.561-1.561V130.29a1.561,1.561,0,0,1,3.122,0v15.767a1.566,1.566,0,0,1-1.561,1.561Zm-6.635-4.137a1.566,1.566,0,0,1-1.561-1.561v-7.1a1.561,1.561,0,1,1,3.122,0v7.1A1.474,1.474,0,0,1,108.228,143.481Zm26.539,0a1.566,1.566,0,0,1-1.561-1.561v-7.1a1.561,1.561,0,1,1,3.122,0v7.1A1.566,1.566,0,0,1,134.767,143.481Zm-6.557,4.059a1.566,1.566,0,0,1-1.561-1.561V130.212a1.561,1.561,0,1,1,3.122,0v15.767A1.566,1.566,0,0,1,128.21,147.54Z" transform="translate(-106.667 -123.733)" fill="#fff"/>
</svg>
